<?xml version="1.0" standalone="no"?>
<!DOCTYPE svg PUBLIC "-//W3C//DTD SVG 20010904//EN"
 "http://www.w3.org/TR/2001/REC-SVG-20010904/DTD/svg10.dtd">
<svg version="1.0" xmlns="http://www.w3.org/2000/svg"
 width="205.000000pt" height="109.000000pt" viewBox="0 0 205.000000 109.000000"
 preserveAspectRatio="xMidYMid meet">

<g transform="translate(0.000000,109.000000) scale(0.100000,-0.100000)"
fill="#000000" stroke="none">
<path d="M0 545 l0 -545 1025 0 1025 0 0 545 0 545 -1025 0 -1025 0 0 -545z
m1131 439 c63 -18 125 -53 174 -96 l35 -30 0 72 0 72 193 -4 c186 -3 194 -4
248 -31 67 -32 142 -109 172 -175 33 -71 31 -198 -4 -272 -51 -108 -139 -179
-251 -201 l-57 -11 -3 -92 -3 -91 -147 -2 -148 -3 0 70 c0 39 -3 70 -6 70 -3
0 -26 -18 -50 -39 -26 -23 -75 -50 -117 -66 -65 -24 -88 -27 -254 -32 l-183
-6 0 97 0 96 -109 0 -110 0 -55 -94 -56 -94 -170 -1 c-97 0 -170 4 -170 9 0 5
113 203 251 440 l251 430 257 0 c205 0 268 -3 312 -16z m647 -760 c28 -19 29
-57 2 -84 -24 -24 -38 -25 -68 -4 -30 20 -30 68 0 88 12 9 27 16 33 16 6 0 21
-7 33 -16z"/>
<path d="M479 628 c-84 -145 -170 -291 -191 -325 l-38 -63 45 0 44 0 56 95 56
95 194 0 195 0 0 -96 0 -96 133 4 c114 3 138 7 177 27 52 27 125 94 146 134
14 25 18 27 84 27 l70 0 0 -95 0 -95 35 0 34 0 3 93 3 92 96 5 c83 4 101 9
137 33 122 80 142 244 43 350 -52 57 -94 71 -228 75 l-123 4 0 -141 0 -141
-59 0 c-58 0 -59 0 -65 33 -16 86 -88 171 -180 214 -60 28 -63 28 -287 31
l-226 3 -154 -263z m361 27 l0 -155 -170 0 c-93 0 -170 3 -170 6 0 4 12 28 27
55 l26 49 89 0 88 0 0 100 0 100 55 0 55 0 0 -155z m287 130 c86 -43 133 -123
133 -225 0 -148 -113 -250 -277 -250 l-63 0 0 58 0 59 67 2 c78 3 116 20 143
64 38 61 17 149 -45 187 -24 15 -50 20 -99 20 l-66 0 0 55 0 55 78 0 c64 0 88
-5 129 -25z m597 -1 c92 -63 87 -206 -10 -261 -31 -18 -55 -23 -116 -23 l-78
0 0 55 0 55 64 0 c84 0 111 23 86 71 -9 16 -22 19 -80 19 l-70 0 0 55 0 55 83
0 c72 0 87 -3 121 -26z"/>
<path d="M1710 205 c-9 -11 -10 -22 -3 -38 9 -20 11 -19 15 16 5 42 5 42 -12
22z"/>
<path d="M1759 206 c6 -7 9 -20 5 -29 -3 -8 -1 -18 4 -21 6 -3 13 1 16 10 7
18 -10 54 -26 54 -7 0 -7 -4 1 -14z"/>
<path d="M1736 155 c-3 -9 0 -15 9 -15 9 0 12 6 9 15 -4 8 -7 15 -9 15 -2 0
-5 -7 -9 -15z"/>
</g>
</svg>
